# xmcd
#
# Track frame offsets:
#	150
#	14963
#	28981
#	46699
#	62208
#	75735
#	95381
#	110194
#	124212
#	141929
#	157438
#	170978
#
# Disc length: 2541
#
# Revision: 1
# Processed by: cddbd v1.5.2PL0 Copyright (c) Steve Scherf et al.
# Submitted via: kJams Pro (development) 1.0patch50.14
#
DISCID=ba09eb0c
DTITLE=Nitty Gritty Dirt Band - CDG20632
DYEAR=1975
DGENRE=Country
TTITLE0=Nitty Gritty Dirt Band - Fishin' In The Dark (Vocals)
TTITLE1=Nitty Gritty Dirt Band - You Made Life Good Again (Vocals)
TTITLE2=Nitty Gritty Dirt Band - Bang, Bang, Bang (Vocals)
TTITLE3=Nitty Gritty Dirt Band - Wreck On The Highway (Vocals)
TTITLE4=Nitty Gritty Dirt Band - Little Mountain Church House (Vocals)
TTITLE5=Nitty Gritty Dirt Band - Roll The Stone Away (Vocals)
TTITLE6=Nitty Gritty Dirt Band - Fishin' In The Dark
TTITLE7=Nitty Gritty Dirt Band - You Made Life Good Again
TTITLE8=Nitty Gritty Dirt Band - Bang, Bang, Bang
TTITLE9=Nitty Gritty Dirt Band - Wreck On The Highway
TTITLE10=Nitty Gritty Dirt Band - Little Mountain Church Road
TTITLE11=Nitty Gritty Dirt Band - Roll The Stone Away
EXTD=
EXTT0=
EXTT1=
EXTT2=
EXTT3=
EXTT4=
EXTT5=
EXTT6=
EXTT7=
EXTT8=
EXTT9=
EXTT10=
EXTT11=
PLAYORDER=
